<svg xmlns="http://www.w3.org/2000/svg" width="48" height="48" viewBox="0 0 48 48">
  <g id="Group_41096" data-name="Group 41096" transform="translate(-7522.814 11997.187)">
    <g id="Layer_2" data-name="Layer 2" transform="translate(7522.813 -11997.187)">
      <g id="Icons" transform="translate(0 0)">
        <g id="Analysis" transform="translate(0 0)">
          <rect id="Rectangle_22727" data-name="Rectangle 22727" width="48" height="48" transform="translate(0 0)" fill="none"/>
          <path id="Path_22292" data-name="Path 22292" d="M28.23,43.361H11.145a.252.252,0,0,1-.252-.26V25.834a6.686,6.686,0,0,0,2.066.568V41.067a.788.788,0,0,0,.788.788h9.666a.788.788,0,1,0,0-1.577H14.5V26.4a6.962,6.962,0,0,0,4.526-11.448H35.681V25.542a.788.788,0,0,0,1.577,0V14.181a.788.788,0,0,0-.788-.788H17.192a6.883,6.883,0,0,0-6.307-.276V10.05a.252.252,0,0,1,.252-.26h8.018v1.317a.788.788,0,0,0,.788.788H30.272a.788.788,0,0,0,.788-.788V9.79H39.04a.252.252,0,0,1,.252.26V26.284a.788.788,0,0,0,1.577,0V10.05a1.813,1.813,0,0,0-1.806-1.805H31.029V7.953a.788.788,0,0,0-.788-.788h-1.79V6.376A2.365,2.365,0,0,0,26.086,4.05H24.059a2.365,2.365,0,0,0-2.326,2.365V7.2H19.928a.788.788,0,0,0-.788.788v.26H11.145a1.813,1.813,0,0,0-1.837,1.8v4.013a6.97,6.97,0,0,0,0,10.825V43.1a1.813,1.813,0,0,0,1.806,1.813H28.23a.788.788,0,0,0,0-1.577Zm-4.171-37.7h2.066a.788.788,0,0,1,.788.788v.788H23.287V6.447a.788.788,0,0,1,.773-.788ZM20.7,8.741h8.783v1.577H20.7ZM8.307,19.48a5.424,5.424,0,1,1,5.44,5.416h0A5.432,5.432,0,0,1,8.307,19.48Z" transform="translate(-1.303 -0.554)" fill="#0d98ba"/>
          <path id="Path_22293" data-name="Path 22293" d="M42.877,35.79a8.066,8.066,0,0,0-3.3.725l-.158-.268a.788.788,0,0,0-1.056-.292,9.075,9.075,0,0,0-4.51,7.829.788.788,0,0,0,.788.788h.292a8,8,0,1,0,7.947-8.783Zm-4.392,1.94,3.051,5.322H35.443A7.522,7.522,0,0,1,38.486,37.73Zm4.392,12.52a6.457,6.457,0,0,1-6.4-5.685h6.4a.788.788,0,0,0,.67-1.159l-3.2-5.519A6.457,6.457,0,1,1,42.877,50.25Z" transform="translate(-7.041 -7.269)" fill="#0d98ba"/>
          <path id="Path_22294" data-name="Path 22294" d="M23.354,33.286a.788.788,0,0,0-1.1,0l-2.318,2.286a.788.788,0,0,0,0,1.1.741.741,0,0,0,.544.229.788.788,0,0,0,.552-.229l1.735-1.735,1.577,1.577a.788.788,0,0,0,1.1,0l2.972-2.98,1.356,1.356a.788.788,0,0,0,1.1,0l4.841-4.77a.775.775,0,0,0-1.1-1.1l-4.242,4.25-1.356-1.356a.788.788,0,0,0-1.1,0l-2.98,2.98Z" transform="translate(-4.051 -5.79)" fill="#0d98ba"/>
          <path id="Path_22295" data-name="Path 22295" d="M12.653,23.25a2.042,2.042,0,0,0,1.577.2l1.5-.4a.5.5,0,0,1,.394.055.465.465,0,0,1,.237.307.52.52,0,0,1-.363.639l-2.247.6a.788.788,0,0,0,.2,1.522c.063,0,.946-.229.946-.229l.071.252a.788.788,0,0,0,.741.576.615.615,0,0,0,.2,0,.788.788,0,0,0,.544-.946l-.063-.252h0a2.066,2.066,0,1,0-1.072-3.99l-1.49.4a.528.528,0,0,1-.394-.047.544.544,0,0,1-.244-.315A.52.52,0,0,1,13.567,21l2.239-.607a.789.789,0,0,0-.418-1.522l-.741.2-.071-.252a.788.788,0,0,0-1.5.4l.071.252h0a2.066,2.066,0,0,0-.5,3.784Z" transform="translate(-2.337 -3.584)" fill="#0d98ba"/>
          <path id="Path_22296" data-name="Path 22296" d="M36.624,21h-9.3a.788.788,0,1,0,0,1.577h9.3a.788.788,0,1,0,0-1.577Z" transform="translate(-5.494 -4.14)" fill="#0d98ba"/>
          <path id="Path_22297" data-name="Path 22297" d="M37.593,24.27H31.908a.788.788,0,1,0,0,1.577h5.685a.788.788,0,0,0,0-1.577Z" transform="translate(-6.463 -4.832)" fill="#0d98ba"/>
        </g>
      </g>
    </g>
  </g>
</svg>
