<svg xmlns="http://www.w3.org/2000/svg" width="45.917" height="48" viewBox="0 0 45.917 48">
  <g id="Group_41095" data-name="Group 41095" transform="translate(-647.452 -2669.563)">
    <g id="g1833" transform="translate(647.452 2669.563)">
      <path id="rect1778" d="M14.528,1102.964a11.3,11.3,0,0,0-6.759,20.406H5.943v5.716H2.512v8H5.943v3.422H2.512v8H23.123v-5.7h3.435v-7.993H23.123v-3.444h3.435v-7.993H21.3a11.3,11.3,0,0,0-6.768-20.406Zm0,2.277a9.065,9.065,0,1,1,.045,18.129h-.089a9.065,9.065,0,0,1,.045-18.129Zm-6.3,20.424H24.277v3.422H8.224Zm-3.431,5.7H20.842v3.444H4.793Zm3.431,5.721H24.277v3.422H8.224ZM4.793,1142.8H20.842v3.426H4.793Z" transform="translate(-2.512 -1100.503)" fill="#0d98ba"/>
      <path id="path1794" d="M8.653,1105.2v1.55H6.207v5.818h4.91v1.266H6.207v2.277H8.653v1.549h2.3v-1.549H13.4v-5.819H8.488v-1.265H13.4v-2.276H10.952v-1.55Z" transform="translate(2.222 -1097.636)" fill="#0d98ba"/>
      <path id="path1812" d="M23.853,1101.885l-9.842,12.094h5.733l.118,25.622h8v-25.622H33.7Zm0,3.626,5.056,6.19H25.578v25.623h-3.45L22.01,1111.7h-3.2Z" transform="translate(12.221 -1101.885)" fill="#0d98ba"/>
      <path id="path1814" d="M16.576,1119.425v2.277h7.982v-2.277H16.576Z" transform="translate(15.507 -1079.412)" fill="#0d98ba"/>
      <path id="path1816" d="M16.576,1121.428v2.277h7.982v-2.277H16.576Z" transform="translate(15.507 -1076.846)" fill="#0d98ba"/>
    </g>
  </g>
</svg>
