<svg xmlns="http://www.w3.org/2000/svg" width="48" height="48.033" viewBox="0 0 48 48.033">
  <g id="Group_41097" data-name="Group 41097" transform="translate(-4749.423 13179.576)">
    <g id="g2051" transform="translate(4749.423 -13179.576)">
      <path id="rect1945" d="M1.88,1150.148v21.34h11.5v-2.851l.049.018c3.005,1,7.3,1.888,11.55,3.407l.316.107.311-.071c1.335-.312,4.932-1.42,9.22-2.8s9.181-3.005,12.818-4.26a3.337,3.337,0,0,0,2.037-4.279A3.5,3.5,0,0,0,45.4,1158.7c-1.383.424-7.875,2.429-12.138,3.687.04-1.216.36-2.53-.627-3.3l-.053-.054-.067-.027c-4.791-2.858-5.2-3.223-11.933-6.8l-.316-.156-.347.035c-2.316.249-6.252.9-6.538.948v-2.878Zm2.277,2.277h6.956v16.785H4.157Zm15.656,1.966c6.153,3.277,6.859,3.777,11.408,6.489.738.579.934,1.29.489,1.93a1.154,1.154,0,0,1-.836.538,2.507,2.507,0,0,1-1.374-.258c-2.049-.947-3.163-1.55-5.426-2.82l-.992-.556L21.97,1161.7l.992.556c2.278,1.277,3.481,1.943,5.6,2.922h.018a4.659,4.659,0,0,0,2.677.418c.373-.062.616-.443.956-.627l.036.1,1.094-.311c4.268-1.25,11.292-3.425,12.716-3.861v-.018a1.253,1.253,0,0,1,1.481.676,1,1,0,0,1-.645,1.326c-3.613,1.247-8.5,2.87-12.769,4.243-4.167,1.338-7.693,2.406-8.8,2.677-4.275-1.485-8.523-2.42-11.181-3.3l-.765-.245v-10.923l.191-.027s3.93-.636,6.244-.907Z" transform="translate(-1.88 -1124.135)" fill="#0d98ba"/>
      <path id="circle2013" d="M24.471,1138.724a14.1,14.1,0,1,0,14.089,14.106,14.13,14.13,0,0,0-14.089-14.106Zm0,2.279a11.819,11.819,0,1,1-11.828,11.827A11.8,11.8,0,0,1,24.471,1141Z" transform="translate(8.957 -1138.724)" fill="#0d98ba"/>
      <path id="path2015" d="M17.79,1141.571v1.975h-3.1v6.774h6.218v2.219H14.69v2.277h3.1v1.966h2.277v-1.966h3.118v-6.773H16.967v-2.219h6.218v-2.277H20.067v-1.975Z" transform="translate(14.482 -1135.088)" fill="#0d98ba"/>
    </g>
  </g>
</svg>
