<svg xmlns="http://www.w3.org/2000/svg" width="23.31" height="23.31" viewBox="0 0 23.31 23.31">
  <g id="_1" data-name="1" opacity="0.81">
    <path id="Path_19958" data-name="Path 19958" d="M71.177,71.33a11.516,11.516,0,0,1-2.69-.339,19.286,19.286,0,0,1-8.813-5.239,19.333,19.333,0,0,1-5.239-8.813c-.772-3.195-.221-5.928,1.549-7.7l.506-.506a2.447,2.447,0,0,1,3.457,0l2.905,2.9a2.446,2.446,0,0,1,0,3.457l-1.716,1.716a21.2,21.2,0,0,0,7.476,7.476l1.716-1.716a2.444,2.444,0,0,1,3.457,0l2.9,2.9a2.444,2.444,0,0,1,0,3.456l-.506.506A6.862,6.862,0,0,1,71.177,71.33ZM58.218,49.758a.7.7,0,0,0-.5.206l-.506.506c-1.326,1.326-1.713,3.479-1.091,6.058A19.072,19.072,0,0,0,68.895,69.3c2.58.623,4.732.235,6.058-1.091l.506-.506a.705.705,0,0,0,0-1l-2.9-2.9a.705.705,0,0,0-1,0l-2.175,2.175a.87.87,0,0,1-1.015.158,22.611,22.611,0,0,1-9.079-9.078.87.87,0,0,1,.157-1.015l2.175-2.175a.705.705,0,0,0,0-1l-2.9-2.905A.7.7,0,0,0,58.218,49.758Z" transform="translate(-54.094 -48.02)" fill="#0d98ba"/>
    <path id="Path_19959" data-name="Path 19959" d="M242.994,133.834a.87.87,0,0,1-.87-.87,5.761,5.761,0,0,0-5.754-5.755.87.87,0,0,1,0-1.739,7.5,7.5,0,0,1,7.494,7.494A.87.87,0,0,1,242.994,133.834Z" transform="translate(-224.982 -120.979)" fill="#0d98ba"/>
    <path id="Path_19960" data-name="Path 19960" d="M246.67,74.11a.87.87,0,0,1-.87-.87,9.443,9.443,0,0,0-9.43-9.431.87.87,0,1,1,0-1.739,11.183,11.183,0,0,1,11.17,11.17A.87.87,0,0,1,246.67,74.11Z" transform="translate(-224.982 -61.255)" fill="#0d98ba"/>
  </g>
</svg>
