<svg xmlns="http://www.w3.org/2000/svg" width="12.446" height="12.445" viewBox="0 0 12.446 12.445">
  <path id="delete" d="M11.7,2.334H.809a.757.757,0,0,1-.547-.225.735.735,0,0,1-.231-.547.765.765,0,0,1,.225-.553A.74.74,0,0,1,.809.779H4.7A.757.757,0,0,1,4.923.232.742.742,0,0,1,5.476,0H7.032a.742.742,0,0,1,.553.231A.757.757,0,0,1,7.81.779H11.7a.747.747,0,0,1,.547.231.754.754,0,0,1,.231.553.734.734,0,0,1-.231.547.759.759,0,0,1-.547.225Zm0,8.556a1.556,1.556,0,0,1-1.556,1.556H2.364a1.5,1.5,0,0,1-1.1-.456,1.5,1.5,0,0,1-.456-1.1V3.112H11.7V10.89ZM3.92,5.445a.788.788,0,0,0-.784-.778.734.734,0,0,0-.547.231.759.759,0,0,0-.225.547v4.667a.768.768,0,0,0,.772.778.765.765,0,0,0,.553-.225.74.74,0,0,0,.231-.553V5.446Zm3.111,0a.788.788,0,0,0-.784-.778A.734.734,0,0,0,5.7,4.9a.759.759,0,0,0-.225.547v4.667a.768.768,0,0,0,.772.778.765.765,0,0,0,.553-.225.74.74,0,0,0,.231-.553V5.446Zm3.111,0a.788.788,0,0,0-.784-.778.734.734,0,0,0-.547.231.759.759,0,0,0-.225.547v4.667a.768.768,0,0,0,.772.778.765.765,0,0,0,.553-.225.74.74,0,0,0,.231-.553V5.446Z" transform="translate(-0.031 -0.001)" fill="#707070"/>
</svg>
