<svg xmlns="http://www.w3.org/2000/svg" width="22.596" height="16.947" viewBox="0 0 22.596 16.947">
  <path id="email-line" d="M23.183,6H3.412A1.412,1.412,0,0,0,2,7.412V21.535a1.412,1.412,0,0,0,1.412,1.412H23.183A1.412,1.412,0,0,0,24.6,21.535V7.412A1.412,1.412,0,0,0,23.183,6ZM22.1,21.535H4.584l4.943-5.112L8.51,15.441l-5.1,5.275V8.486l8.777,8.735a1.412,1.412,0,0,0,1.991,0l9-8.954V20.624l-5.2-5.2-1,1ZM4.337,7.412h17.7l-8.855,8.805Z" transform="translate(-2 -6)" fill="#0d98ba" opacity="0.79"/>
</svg>
