<svg xmlns="http://www.w3.org/2000/svg" width="36" height="36" viewBox="0 0 36 36">
  <g id="Group_41195" data-name="Group 41195" transform="translate(-12046 -1807)">
    <g id="Ellipse_1044" data-name="Ellipse 1044" transform="translate(12046 1807)" fill="#fff" stroke="#6bad03" stroke-width="1">
      <circle cx="18" cy="18" r="18" stroke="none"/>
      <circle cx="18" cy="18" r="17.5" fill="none"/>
    </g>
    <g id="_211705_camera_icon" data-name="211705_camera_icon" transform="translate(11991 1707)">
      <path id="Path_22311" data-name="Path 22311" d="M79.921,114.162H77.142C75.7,112.54,75.241,112,74.687,112H70.7c-.554,0-1,.54-2.455,2.162h-.6v-.721H66.117v.721h-.608A1.459,1.459,0,0,0,64,115.544v7.927a1.559,1.559,0,0,0,1.509,1.5H79.921a1.444,1.444,0,0,0,1.374-1.5v-7.927A1.342,1.342,0,0,0,79.921,114.162Zm.653,9.309a.723.723,0,0,1-.653.779H65.509a.846.846,0,0,1-.788-.779v-7.927a.739.739,0,0,1,.788-.662h3.054l.216-.144c.18-.2.347-.45.5-.622.509-.572.878-.977,1.139-1.212.212-.189.279-.185.279-.185h3.986s.072,0,.3.2c.275.248.662.743,1.2,1.342q.2.223.419.473l.216.144h3.1a.622.622,0,0,1,.653.662v7.927Z"/>
      <path id="Path_22312" data-name="Path 22312" d="M174.351,189.5a3.851,3.851,0,1,0,3.851,3.851A3.858,3.858,0,0,0,174.351,189.5Zm0,6.981a3.13,3.13,0,1,1,3.13-3.13A3.129,3.129,0,0,1,174.351,196.481Z" transform="translate(-101.704 -73.799)"/>
      <rect id="Rectangle_22744" data-name="Rectangle 22744" height="1" transform="translate(77.648 115.485)"/>
      <circle id="Ellipse_1045" data-name="Ellipse 1045" cx="2" cy="2" r="2" transform="translate(70.648 117.485)"/>
    </g>
  </g>
</svg>
